<svg xmlns="http://www.w3.org/2000/svg" viewBox="0 0 95.52 95.52"><title>add-quiz</title><path d="M87.57,97h-73A11.25,11.25,0,0,1,3.29,85.78v-73A11.25,11.25,0,0,1,14.53,1.5h73A11.25,11.25,0,0,1,98.81,12.74v73A11.25,11.25,0,0,1,87.57,97ZM14.53,6.5a6.25,6.25,0,0,0-6.24,6.24v73A6.25,6.25,0,0,0,14.53,92h73a6.25,6.25,0,0,0,6.24-6.24v-73A6.25,6.25,0,0,0,87.57,6.5Z" transform="translate(-3.29 -1.5)"/><path d="M51.05,66.67a2.5,2.5,0,0,1-2.5-2.5V34.35a2.5,2.5,0,0,1,5,0V64.17A2.5,2.5,0,0,1,51.05,66.67Z" transform="translate(-3.29 -1.5)"/><path d="M66,51.76H36.14a2.5,2.5,0,0,1,0-5H66a2.5,2.5,0,0,1,0,5Z" transform="translate(-3.29 -1.5)"/></svg>