<svg xmlns="http://www.w3.org/2000/svg" viewBox="0 0 95.52 95.52"><title>view-quizzes</title><path d="M86.78,97.39h-73A11.25,11.25,0,0,1,2.5,86.15v-73A11.25,11.25,0,0,1,13.74,1.88h73A11.25,11.25,0,0,1,98,13.12v73A11.25,11.25,0,0,1,86.78,97.39Zm-73-90.51A6.24,6.24,0,0,0,7.5,13.12v73a6.25,6.25,0,0,0,6.24,6.24h73A6.25,6.25,0,0,0,93,86.15v-73a6.24,6.24,0,0,0-6.24-6.24Z" transform="translate(-2.5 -1.88)"/><path d="M50.26,70.86v-5c5.33,0,10.74-2.26,15.49-5.18a19,19,0,0,0,0-22.08c-4.76-2.92-10.17-5.2-15.5-5.2v-5C67.42,28.4,83.9,47.2,84.59,48L86,49.63l-1.42,1.64C83.9,52.07,67.42,70.86,50.26,70.86ZM73.73,44.44a24.42,24.42,0,0,1,0,10.4c2.4-2,4.32-3.93,5.56-5.2C78.05,48.36,76.13,46.48,73.73,44.44ZM50.26,70.86c-17.17,0-33.64-18.79-34.33-19.59l-1.42-1.64L15.93,48c.69-.8,17.16-19.6,34.33-19.6v5c-5.33,0-10.74,2.27-15.49,5.18a19,19,0,0,0,0,22.09c4.76,2.92,10.17,5.19,15.5,5.19Zm-29-21.23c1.24,1.27,3.16,3.16,5.56,5.2a24.42,24.42,0,0,1,0-10.4C24.39,46.47,22.47,48.36,21.23,49.63Z" transform="translate(-2.5 -1.88)"/><circle cx="47.76" cy="47.76" r="7.52"/></svg>